<?xml version="1.0" encoding="UTF-8"?>
<svg width="30px" height="30px" viewBox="0 0 30 30" version="1.1" xmlns="http://www.w3.org/2000/svg" xmlns:xlink="http://www.w3.org/1999/xlink">
    <!-- Generator: sketchtool 59.1 (101010) - https://sketch.com -->
    <title>6A8C4639-192F-440D-86AD-FC80B84FC6E3</title>
    <desc>Created with sketchtool.</desc>
    <defs>
        <linearGradient x1="33.2019533%" y1="14.05981%" x2="58.4948073%" y2="68.1747744%" id="linearGradient-1">
            <stop stop-color="#3457A0" offset="0%"></stop>
            <stop stop-color="#3B5998" offset="100%"></stop>
        </linearGradient>
        <linearGradient x1="71.3773671%" y1="64.688365%" x2="-27.1348331%" y2="-2.99906217%" id="linearGradient-2">
            <stop stop-color="#3457A0" stop-opacity="0" offset="0%"></stop>
            <stop stop-color="#1F3F77" offset="100%"></stop>
        </linearGradient>
        <linearGradient x1="49.9996672%" y1="17.6803361%" x2="49.9996672%" y2="85.4754892%" id="linearGradient-3">
            <stop stop-color="#3457A0" stop-opacity="0" offset="0%"></stop>
            <stop stop-color="#1F3F77" offset="100%"></stop>
        </linearGradient>
        <linearGradient x1="85.3516982%" y1="79.1081241%" x2="28.7085703%" y2="37.1141965%" id="linearGradient-4">
            <stop stop-color="#3457A0" stop-opacity="0" offset="0%"></stop>
            <stop stop-color="#2A4C8D" stop-opacity="0.32549" offset="32.51%"></stop>
            <stop stop-color="#22427D" stop-opacity="0.705882" offset="70.45%"></stop>
            <stop stop-color="#1F3F77" offset="100%"></stop>
        </linearGradient>
    </defs>
    <g id="Web-Design" stroke="none" stroke-width="1" fill="none" fill-rule="evenodd">
        <g id="Style-Guide-(Incomplete)" transform="translate(-269.000000, -266.000000)" fill-rule="nonzero">
            <g id="facebook-(3)" transform="translate(269.000000, 266.000000)">
                <path d="M24.6340942,29.4863892 C18.2178497,30.1712036 11.7821503,30.1712036 5.36590576,29.4863892 C2.80746457,29.2133331 0.786666855,27.1925354 0.51361084,24.6338654 C-0.171203613,18.2176208 -0.171203613,11.7821503 0.51361084,5.36590576 C0.786666855,2.80746457 2.80746457,0.786666855 5.36590576,0.51361084 C11.7821503,-0.171203613 18.2176208,-0.171203613 24.6338654,0.51361084 C27.1925354,0.786666855 29.2133331,2.80746457 29.4863892,5.36590576 C30.1712036,11.7821503 30.1712036,18.2176208 29.4863892,24.6338654 C29.2133331,27.1925354 27.1927643,29.2133331 24.6340942,29.4863892 Z" id="Path" fill="url(#linearGradient-1)"></path>
                <path d="M27.9019399,6.41965936 C27.6588933,4.14104074 25.8592464,2.3411641 23.5803981,2.09788784 C17.8658183,1.48820405 12.1342391,1.48820405 6.41965936,2.09788784 C4.14104074,2.3411641 2.3411641,4.14104074 2.09788784,6.41965936 C1.48820405,12.1342391 1.48820405,17.8658183 2.09788784,23.5801684 C2.3411641,25.8590167 4.14104074,27.6588933 6.41965936,27.9019399 C12.1342391,28.5118534 17.8658183,28.5118534 23.5801684,27.9019399 C25.8590167,27.6588933 27.6588933,25.8590167 27.9019399,23.5801684 C28.5118534,17.8658183 28.5118534,12.1342391 27.9019399,6.41965936 L27.9019399,6.41965936 Z" id="Path" fill="url(#linearGradient-2)"></path>
                <path d="M0.46875,23.90625 C0.489322014,24.1172788 0.510579717,24.3283077 0.53275173,24.5393366 C0.805444802,27.1429578 2.82355649,29.1994412 5.37882559,29.4773192 C11.7865417,30.1742269 18.2134583,30.1742269 24.6211744,29.4773192 C27.1764435,29.1994412 29.1943266,27.1429578 29.4670197,24.5393366 C29.4891917,24.3283077 29.5104494,24.1172788 29.53125,23.90625 L0.46875,23.90625 Z" id="Path" fill="url(#linearGradient-3)"></path>
                <path d="M20.1697156,4.921875 C17.5560632,4.921875 15.4374485,7.04728383 15.4374485,9.66903459 L15.4374485,13.2148262 L12.890625,13.2148262 L12.890625,17.6049961 L15.4374485,19.8931738 L15.4374485,30 C18.5047138,29.9850776 21.5717502,29.814044 24.634667,29.4862103 C27.1931626,29.2123269 29.2135938,27.185406 29.4866312,24.6189829 C29.9960874,19.8304997 30.1263123,15.0314561 29.8775347,10.2374632 L24.5783659,4.921875 L20.1697156,4.921875 Z" id="Path" fill="url(#linearGradient-4)"></path>
                <path d="M15.4442055,30 C17.1966943,29.9915057 18.9489535,29.9320457 20.7005243,29.8218495 L20.7005243,17.6049961 L24.1880617,17.6049961 L24.609375,13.2148262 L20.7005243,13.2148262 L20.7005243,10.4270924 C20.7005243,9.81137132 21.1993995,9.31227443 21.8148473,9.31227443 L24.609375,9.31227443 L24.609375,4.921875 L20.189028,4.921875 C17.5684412,4.921875 15.4442055,7.04728383 15.4442055,9.66903459 L15.4442055,13.2148262 L12.890625,13.2148262 L12.890625,17.6049961 L15.4442055,17.6049961 L15.4442055,30 Z" id="Path" fill="#FFFFFF"></path>
            </g>
        </g>
    </g>
</svg>