<?xml version="1.0" encoding="UTF-8"?>
<svg width="30px" height="30px" viewBox="0 0 30 30" version="1.1" xmlns="http://www.w3.org/2000/svg" xmlns:xlink="http://www.w3.org/1999/xlink">
    <!-- Generator: sketchtool 59.1 (101010) - https://sketch.com -->
    <title>D1ABFB31-0E2A-44BE-A41B-F3A208954384</title>
    <desc>Created with sketchtool.</desc>
    <defs>
        <radialGradient cx="20.4994381%" cy="87.3920768%" fx="20.4994381%" fy="87.3920768%" r="110.2824%" id="radialGradient-1">
            <stop stop-color="#FAE100" offset="0%"></stop>
            <stop stop-color="#FADC04" offset="5.44%"></stop>
            <stop stop-color="#FBCE0E" offset="11.67%"></stop>
            <stop stop-color="#FCB720" offset="18.29%"></stop>
            <stop stop-color="#FE9838" offset="25.14%"></stop>
            <stop stop-color="#FF7950" offset="30.54%"></stop>
            <stop stop-color="#FF1C74" offset="49.22%"></stop>
            <stop stop-color="#6C1CD1" offset="100%"></stop>
        </radialGradient>
        <linearGradient x1="36.8759009%" y1="42.6177546%" x2="-154.039644%" y2="-64.7722395%" id="linearGradient-2">
            <stop stop-color="#A1B5D8" stop-opacity="0" offset="0%"></stop>
            <stop stop-color="#90A2BD" stop-opacity="0.309804" offset="30.94%"></stop>
            <stop stop-color="#7C8B9C" stop-opacity="0.756863" offset="75.54%"></stop>
            <stop stop-color="#748290" offset="100%"></stop>
        </linearGradient>
        <linearGradient x1="49.9996672%" y1="41.2557065%" x2="49.9996672%" y2="119.349194%" id="linearGradient-3">
            <stop stop-color="#FAE100" stop-opacity="0" offset="0%"></stop>
            <stop stop-color="#FCA800" stop-opacity="0.305882" offset="30.68%"></stop>
            <stop stop-color="#FE7300" stop-opacity="0.627451" offset="62.75%"></stop>
            <stop stop-color="#FF5200" stop-opacity="0.866667" offset="86.85%"></stop>
            <stop stop-color="#FF4500" offset="100%"></stop>
        </linearGradient>
        <linearGradient x1="31.6097795%" y1="31.0673994%" x2="1.2163078%" y2="0.511005843%" id="linearGradient-4">
            <stop stop-color="#833AB4" stop-opacity="0" offset="0%"></stop>
            <stop stop-color="#833AB4" offset="100%"></stop>
        </linearGradient>
        <linearGradient x1="58.2371646%" y1="88.6532424%" x2="41.8417883%" y2="11.2586181%" id="linearGradient-5">
            <stop stop-color="#833AB4" stop-opacity="0" offset="0%"></stop>
            <stop stop-color="#833AB4" offset="100%"></stop>
        </linearGradient>
        <linearGradient x1="60.5048093%" y1="60.5047823%" x2="-15.9715487%" y2="-15.9716059%" id="linearGradient-6">
            <stop stop-color="#833AB4" stop-opacity="0" offset="0%"></stop>
            <stop stop-color="#833AB4" offset="100%"></stop>
        </linearGradient>
        <linearGradient x1="39.7246784%" y1="33.2168435%" x2="2.74341928%" y2="-6.34929376%" id="linearGradient-7">
            <stop stop-color="#833AB4" stop-opacity="0" offset="0%"></stop>
            <stop stop-color="#833AB4" offset="100%"></stop>
        </linearGradient>
        <linearGradient x1="81.5887586%" y1="20.0348145%" x2="17.2310239%" y2="81.5135895%" id="linearGradient-8">
            <stop stop-color="#833AB4" offset="0%"></stop>
            <stop stop-color="#9C3495" offset="9.22%"></stop>
            <stop stop-color="#DC2546" offset="29.27%"></stop>
            <stop stop-color="#FD1D1D" offset="39.2%"></stop>
            <stop stop-color="#FC6831" offset="55.89%"></stop>
            <stop stop-color="#FC9B40" offset="68.87%"></stop>
            <stop stop-color="#FCAF45" offset="75.21%"></stop>
            <stop stop-color="#FDB750" offset="78.06%"></stop>
            <stop stop-color="#FECB6A" offset="86.56%"></stop>
            <stop stop-color="#FFD87A" offset="94.15%"></stop>
            <stop stop-color="#FFDC80" offset="100%"></stop>
        </linearGradient>
    </defs>
    <g id="Web-Design" stroke="none" stroke-width="1" fill="none" fill-rule="evenodd">
        <g id="Style-Guide-(Incomplete)" transform="translate(-209.000000, -266.000000)" fill-rule="nonzero">
            <g id="instagram" transform="translate(209.000000, 266.000000)">
                <path d="M29.4863892,5.36590576 C29.2133331,2.80746457 27.1927643,0.786437988 24.6340942,0.51361084 C18.2176208,-0.171203613 11.7823792,-0.171203613 5.36613463,0.51361084 C2.80746457,0.786666855 0.786666855,2.80746457 0.51361084,5.36590576 C-0.171203613,11.7821503 -0.171203613,18.2176208 0.51361084,24.6338654 C0.786666855,27.1925354 2.80746457,29.2133331 5.36590576,29.4863892 C11.7821503,30.1712036 18.2176208,30.1712036 24.6340942,29.4863892 C27.1927643,29.2133331 29.2133331,27.1925354 29.4863892,24.6338654 C30.1712036,18.2176208 30.1712036,11.7823792 29.4863892,5.36590576 Z" id="Path" fill="url(#radialGradient-1)"></path>
                <path d="M27.8767899,6.43638517 C27.6342171,4.1622083 25.8380783,2.3658402 23.5636721,2.12303816 C17.8602319,1.51454284 12.1398254,1.51454284 6.43638517,2.12303816 C4.1622083,2.3658402 2.3658402,4.1622083 2.12303816,6.43638517 C1.51454284,12.1398254 1.51454284,17.8602319 2.12303816,23.5634429 C2.3658402,25.837849 4.1622083,27.6342171 6.43638517,27.8767899 C12.1398254,28.4855145 17.8602319,28.4855145 23.5634429,27.8767899 C25.837849,27.6342171 27.6342171,25.837849 27.8767899,23.5634429 C28.4855145,17.8602319 28.4855145,12.1398254 27.8767899,6.43638517 L27.8767899,6.43638517 Z" id="Path" fill="url(#linearGradient-2)"></path>
                <path d="M0.555555556,23.8888889 C0.576004678,24.100519 0.597135394,24.312149 0.619174958,24.5237792 C0.890239039,27.1348181 2.8962951,29.1971604 5.43629975,29.4758301 C11.805738,30.1747233 18.194262,30.1747233 24.5637002,29.4758301 C27.1037049,29.1971604 29.1095338,27.1348181 29.3805978,24.5237792 C29.4026374,24.312149 29.4237681,24.100519 29.4444444,23.8888889 L0.555555556,23.8888889 Z" id="Path" fill="url(#linearGradient-3)"></path>
                <path d="M29.4863805,24.6015316 C29.8546704,21.133072 30.024615,17.659086 29.9971307,14.1855606 L23.1352126,7.28686519 C22.2779309,6.30294913 21.0257912,5.68883627 19.554464,5.63564538 C16.5286696,5.52603994 13.4932557,5.53156626 10.4670032,5.63610594 C7.9535623,5.72314552 6.19594017,7.42156934 5.74519735,9.91785629 C5.66572185,10.3585807 5.61808236,10.8050617 5.55555556,11.2490098 L5.55555556,18.5672454 C5.59014,18.8044169 5.64098596,19.040437 5.65678943,19.27899 C5.75756527,20.7973477 6.37825282,22.0978761 7.37203991,22.9777131 L14.354889,29.9977575 C17.7817255,30.0219351 21.208791,29.8506191 24.6308176,29.4833487 C27.1912109,29.2086443 29.2131406,27.1756476 29.4863805,24.6015316 L29.4863805,24.6015316 Z" id="Path" fill="url(#linearGradient-4)"></path>
                <path d="M29.4825954,24.5853021 C29.2076478,27.1668061 27.1706831,29.2064645 24.5925883,29.4817757 C21.146748,29.8499351 17.6946798,30.0220045 14.2439956,29.9977531 L7.22222222,22.9666943 C8.03622385,23.6801474 9.09726312,24.114594 10.32853,24.1610181 C13.375558,24.2755771 16.4331964,24.2725745 19.4802244,24.1626349 C22.2361585,24.0628577 24.230451,22.0204277 24.3164875,19.2608491 C24.4082904,16.3308178 24.4082904,13.3931646 24.3164875,10.4631334 C24.2772751,9.19005026 23.8309467,8.06986643 23.0909871,7.22222222 L29.9971995,14.1375672 C30.0244174,17.6212234 29.8532672,21.1062653 29.4825954,24.5853021 Z" id="Path" fill="url(#linearGradient-5)"></path>
                <path d="M18.337286,11.5551805 C17.4596529,10.5995711 16.2003705,10 14.8006852,10 C12.1494923,10 10,12.1494923 10,14.8006852 C10,16.2003705 10.5995711,17.4596529 11.5551805,18.337286 L22.6623389,29.4444444 C23.2502479,29.3932225 23.8381569,29.3362838 24.4256086,29.2736284 C26.9819038,29.0008258 29.0008258,26.9819038 29.2736284,24.4256086 C29.3362838,23.8381569 29.3932225,23.2502479 29.4444444,22.6623389 L18.337286,11.5551805 Z" id="Path" fill="url(#linearGradient-6)"></path>
                <path d="M30,18.1235817 L20.961659,9.33280177 C20.7507983,9.06362055 20.4185539,8.88888889 20.0437675,8.88888889 C19.4060988,8.88888889 18.8888889,9.39172027 18.8888889,10.0121639 C18.8888889,10.3766943 19.0685367,10.6998467 19.3452914,10.9049371 L29.8383864,21.1111111 C29.9095981,20.1155678 29.9634693,19.1195748 30,18.1235817 L30,18.1235817 Z" id="Path" fill="url(#linearGradient-7)"></path>
                <path d="M5.55555556,11.1350445 C5.61814727,10.6999828 5.66583621,10.262439 5.74539421,9.83053651 C6.19637561,7.38421752 7.95605157,5.71979089 10.4721016,5.63449357 C13.5014955,5.53204646 16.5400603,5.52663075 19.5689957,5.63404223 C22.3074412,5.73107364 24.2906591,7.72676088 24.3761782,10.4228793 C24.4671999,13.2857562 24.4671999,16.1556285 24.3761782,19.0185055 C24.2906591,21.7146239 22.3081291,23.7100855 19.569225,23.8073425 C16.5402897,23.9149796 13.501037,23.9176875 10.4723309,23.8057629 C7.73342675,23.7044441 5.84008425,21.7042438 5.65689452,19.0040636 C5.64107465,18.7705113 5.5901759,18.5389899 5.55555556,18.3065659 C5.55555556,15.9159835 5.55555556,13.5254012 5.55555556,11.1350445 Z M15.0025507,22.2094839 C16.3887397,22.2094839 17.7763043,22.2503273 19.1606592,22.2000064 C21.3311937,22.1208018 22.6662546,20.8458545 22.7169241,18.7116156 C22.7797451,16.0522788 22.7797451,13.3893316 22.7169241,10.7297692 C22.6662546,8.59598151 21.3302765,7.29124792 19.1606592,7.2458914 C16.4068523,7.18857522 13.6500649,7.1890265 10.896258,7.2458914 C8.74314836,7.2903453 7.40418972,8.56867728 7.34572491,10.6789969 C7.27144021,13.3719562 7.27144021,16.0696542 7.34572491,18.7626134 C7.40418972,20.8727074 8.74314836,22.1214787 10.8964873,22.2000064 C12.2634173,22.2501017 13.6337864,22.2094839 15.0025507,22.2094839 L15.0025507,22.2094839 Z" id="Shape" fill="url(#linearGradient-8)"></path>
                <g id="Group" transform="translate(5.555556, 5.555556)" fill="#FFFFFF">
                    <path d="M0.00527035197,5.75590443 C0.0678269496,5.30855555 0.11548913,4.85865435 0.195002495,4.41455382 C0.645730863,1.89914449 2.40441952,0.187710175 4.91905788,0.100003836 C7.94675207,-0.0053366457 10.9836121,-0.010905304 14.010848,0.0995397519 C16.7477571,0.199311576 18.7298622,2.25136215 18.8153333,5.02362587 C18.9063039,7.96735781 18.9063039,10.9182827 18.8153333,13.8620147 C18.7298622,16.6342784 16.7484445,18.6860969 14.0110771,18.7861007 C10.9838413,18.8967778 7.94629381,18.8995622 4.91928701,18.7844766 C2.18191961,18.6802962 0.289639406,16.6236051 0.106552457,13.8471649 C0.0907414596,13.6070165 0.0398712767,13.3689563 0.00527035197,13.1299681 C0.00527035197,10.6718695 0.00527035197,8.21377096 0.00527035197,5.75590443 Z M9.44696506,17.1431145 C10.8323763,17.1431145 12.2191624,17.1851115 13.6027406,17.1333693 C15.7720573,17.0519278 17.1063691,15.7409728 17.1570102,13.5464574 C17.219796,10.8120141 17.219796,8.07385841 17.1570102,5.33918317 C17.1063691,3.14513181 15.7711406,1.80354919 13.6027406,1.75691169 C10.8504788,1.69797675 8.0952381,1.69844078 5.34297628,1.75691169 C3.19107469,1.80262108 1.85286731,3.11705644 1.79443529,5.28697695 C1.72019228,8.05599231 1.72019228,10.8298802 1.79443529,13.5988955 C1.85286731,15.768584 3.19107469,17.0526239 5.34320547,17.1333693 C6.70936853,17.1848795 8.07896878,17.1431145 9.44696506,17.1431145 L9.44696506,17.1431145 Z" id="Shape"></path>
                    <path d="M9.44444444,4.57349266 C6.78773618,4.57349266 4.63377224,6.75431847 4.63377224,9.44444444 C4.63377224,12.1348025 6.78773618,14.3156282 9.44444444,14.3156282 C12.1013819,14.3156282 14.2551166,12.1348025 14.2551166,9.44444444 C14.2551166,6.75431847 12.1013819,4.57349266 9.44444444,4.57349266 Z M9.44444444,12.6385341 C7.70225423,12.6385341 6.29003297,11.208549 6.29003297,9.44444444 C6.29003297,7.68033989 7.70225423,6.25035484 9.44444444,6.25035484 C11.1866347,6.25035484 12.5988559,7.68033989 12.5988559,9.44444444 C12.5988559,11.208549 11.1866347,12.6385341 9.44444444,12.6385341 Z" id="Shape"></path>
                    <path d="M15.6803992,4.35121035 C15.6803992,4.99114203 15.1680307,5.50995536 14.5360486,5.50995536 C13.9040664,5.50995536 13.3914688,4.99114203 13.3914688,4.35121035 C13.3914688,3.71104666 13.9040664,3.19223339 14.5360486,3.19223339 C15.1680307,3.19223339 15.6803992,3.71104666 15.6803992,4.35121035 Z" id="Path"></path>
                </g>
            </g>
        </g>
    </g>
</svg>