<?xml version="1.0" encoding="UTF-8"?>
<svg width="19px" height="20px" viewBox="0 0 19 20" version="1.1" xmlns="http://www.w3.org/2000/svg" xmlns:xlink="http://www.w3.org/1999/xlink">
    <!-- Generator: sketchtool 59.1 (101010) - https://sketch.com -->
    <title>F7AE6C3D-E0B2-4750-9216-59C931A68106</title>
    <desc>Created with sketchtool.</desc>
    <g id="Web-Design" stroke="none" stroke-width="1" fill="none" fill-rule="evenodd">
        <g id="Style-Guide-(Incomplete)" transform="translate(-210.000000, -194.000000)">
            <g id="Calendar,Schedule.4-Copy" transform="translate(208.000000, 192.000000)">
                <g id="Group" stroke-linecap="round" stroke-linejoin="round" transform="translate(3.273605, 3.122318)" stroke="#A5A5A5" stroke-width="1.5">
                    <line x1="5.50429185" y1="6.42167382" x2="5.50429185" y2="17.4302575" id="Path"></line>
                    <line x1="11.0085837" y1="6.42167382" x2="11.0085837" y2="17.4302575" id="Path"></line>
                    <line x1="11.9259657" y1="0" x2="11.9259657" y2="3.6695279" id="Path"></line>
                    <line x1="4.58690987" y1="0" x2="4.58690987" y2="3.6695279" id="Path"></line>
                    <line x1="0" y1="6.42167382" x2="16.5128755" y2="6.42167382" id="Path"></line>
                    <path d="M14.6781116,1.83476395 L1.83476395,1.83476395 C0.821056867,1.83476395 0,2.65582082 0,3.6695279 L0,15.5954936 C0,16.6092006 0.821056867,17.4302575 1.83476395,17.4302575 L14.6781116,17.4302575 C15.6918187,17.4302575 16.5128755,16.6092006 16.5128755,15.5954936 L16.5128755,3.6695279 C16.5128755,2.65582082 15.6918187,1.83476395 14.6781116,1.83476395 Z" id="Path"></path>
                    <line x1="0" y1="11.9259657" x2="16.5128755" y2="11.9259657" id="Path"></line>
                </g>
                <polygon id="Path" points="0.521459227 1.28755365 22.5386266 1.28755365 22.5386266 23.304721 0.521459227 23.304721"></polygon>
            </g>
        </g>
    </g>
</svg>