<?xml version="1.0" encoding="UTF-8"?>
<svg width="40px" height="40px" viewBox="0 0 40 40" version="1.1" xmlns="http://www.w3.org/2000/svg" xmlns:xlink="http://www.w3.org/1999/xlink">
    <!-- Generator: sketchtool 59.1 (101010) - https://sketch.com -->
    <title>CB37123F-8A24-4688-BF24-B97A827A39B5</title>
    <desc>Created with sketchtool.</desc>
    <g id="Web-Design" stroke="none" stroke-width="1" fill="none" fill-rule="evenodd">
        <g id="Style-Guide-(Incomplete)" transform="translate(-228.000000, -1051.000000)">
            <g id="Group-3-Copy" transform="translate(228.000000, 1051.000000)">
                <circle id="Oval" fill="#FFF2CC" cx="20" cy="20" r="20"></circle>
                <g id="Warning.1" transform="translate(12.000000, 12.000000)" stroke-linecap="round" stroke-linejoin="round">
                    <g id="Group">
                        <line x1="8.5" y1="8.97391304" x2="8.5" y2="5.72173913" id="Path" stroke="#FFA500" stroke-width="1.5"></line>
                        <path d="M8.49915,11.5869565 C8.38185,11.5869565 8.28665,11.6843478 8.2875,11.8043478 C8.2875,11.9243478 8.3827,12.0217391 8.5,12.0217391 C8.6173,12.0217391 8.7125,11.9243478 8.7125,11.8043478 C8.7125,11.6843478 8.6173,11.5869565 8.49915,11.5869565" id="Path" stroke="#FFA500" stroke-width="1.5"></path>
                        <path d="M10.22465,1.16434783 L16.7348,12.82 C17.4913,14.1747826 16.53505,15.8608696 15.01015,15.8608696 L1.98985,15.8608696 C0.4641,15.8608696 -0.49215,14.1747826 0.2652,12.82 L6.77535,1.16434783 C7.5378,-0.20173913 9.4622,-0.20173913 10.22465,1.16434783 Z" id="Path" fill-opacity="0.2" fill="#FFA500"></path>
                    </g>
                </g>
            </g>
        </g>
    </g>
</svg>