<?xml version="1.0" encoding="UTF-8"?>
<svg width="40px" height="40px" viewBox="0 0 40 40" version="1.1" xmlns="http://www.w3.org/2000/svg" xmlns:xlink="http://www.w3.org/1999/xlink">
    <!-- Generator: sketchtool 59.1 (101010) - https://sketch.com -->
    <title>30757A05-8912-4145-A0B1-CEB0D6BEF29B</title>
    <desc>Created with sketchtool.</desc>
    <g id="Web-Design" stroke="none" stroke-width="1" fill="none" fill-rule="evenodd">
        <g id="Style-Guide-(Incomplete)" transform="translate(-228.000000, -1297.000000)">
            <g id="Group-5-Copy" transform="translate(228.000000, 1297.000000)">
                <circle id="Oval-Copy-2" fill="#D9EBFE" cx="20" cy="20" r="20"></circle>
                <g id="Info,-Infornation" transform="translate(11.000000, 11.000000)" stroke-linecap="round" stroke-linejoin="round">
                    <g id="Group">
                        <path d="M9,18 L9,18 C4.029,18 0,13.971 0,9 L0,9 C0,4.029 4.029,0 9,0 L9,0 C13.971,0 18,4.029 18,9 L18,9 C18,13.971 13.971,18 9,18 Z" id="Path" fill="#AAD2FD"></path>
                        <polyline id="Path" stroke="#419AFA" stroke-width="1.5" points="9 14 9 9 8 9"></polyline>
                        <path d="M8.749,5 C8.611,5 8.499,5.112 8.5,5.25 C8.5,5.388 8.612,5.5 8.74999668,5.5 C8.888,5.5 9,5.388 9,5.25 C9,5.112 8.888,5 8.749,5" id="Path" stroke="#419AFA" stroke-width="1.5"></path>
                    </g>
                </g>
            </g>
        </g>
    </g>
</svg>