<?xml version="1.0" encoding="UTF-8"?>
<svg width="19px" height="19px" viewBox="0 0 19 19" version="1.1" xmlns="http://www.w3.org/2000/svg" xmlns:xlink="http://www.w3.org/1999/xlink">
    <!-- Generator: Sketch 59.1 (86144) - https://sketch.com -->
    <title>information (1)</title>
    <desc>Created with Sketch.</desc>
    <g id="Web-Design-Copy" stroke="none" stroke-width="1" fill="none" fill-rule="evenodd">
        <g id="Request-details-page-" transform="translate(-212.000000, -303.000000)" fill="#A5A5A5" fill-rule="nonzero">
            <g id="information-(1)" transform="translate(212.000000, 303.000000)">
                <path d="M9.5,0 C4.2617,0 0,4.26175758 0,9.50005758 C0,14.7383576 4.2617,19 9.5,19 C14.7383,19 19,14.7383576 19,9.50005758 C19,4.26175758 14.7383,0 9.5,0 Z M9.5,17.2727273 C5.21406061,17.2727273 1.72727273,13.7859394 1.72727273,9.50005758 C1.72727273,5.21417576 5.21406061,1.72727273 9.5,1.72727273 C13.7859394,1.72727273 17.2727273,5.21417576 17.2727273,9.50005758 C17.2727273,13.7859394 13.7858818,17.2727273 9.5,17.2727273 Z" id="Shape"></path>
                <path d="M10,4 C9.44858972,4 9,4.4488 9,5.00045 C9,5.5516 9.44858972,6 10,6 C10.5514103,6 11,5.5516 11,5.00045 C11,4.4488 10.5514103,4 10,4 Z" id="Path"></path>
                <path d="M10,8 C9.44773333,8 9,8.39176667 9,8.875 L9,14.125 C9,14.6082333 9.44773333,15 10,15 C10.5522667,15 11,14.6082333 11,14.125 L11,8.875 C11,8.39176667 10.5522667,8 10,8 Z" id="Path"></path>
            </g>
        </g>
    </g>
</svg>