<?xml version="1.0" encoding="UTF-8"?>
<svg width="21px" height="16px" viewBox="0 0 21 16" version="1.1" xmlns="http://www.w3.org/2000/svg" xmlns:xlink="http://www.w3.org/1999/xlink">
    <!-- Generator: sketchtool 59.1 (101010) - https://sketch.com -->
    <title>132E4B3A-32F9-4B7F-B416-627FCA121172</title>
    <desc>Created with sketchtool.</desc>
    <g id="Web-Design" stroke="none" stroke-width="1" fill="none" fill-rule="evenodd">
        <g id="Style-Guide-(Incomplete)" transform="translate(-291.000000, -196.000000)">
            <g id="Emails,-Letter,-Mail.1-Copy" transform="translate(290.000000, 192.000000)">
                <g id="Group" stroke-linecap="round" stroke-linejoin="round" transform="translate(1.897222, 5.040278)" stroke="#A5A5A5" stroke-width="1.5">
                    <path d="M17.075,13.2805556 L1.89722222,13.2805556 C0.849006944,13.2805556 0,12.4315486 0,11.3833333 L0,1.89722222 C0,0.849006944 0.849006944,0 1.89722222,0 L17.075,0 C18.1232153,0 18.9722222,0.849006944 18.9722222,1.89722222 L18.9722222,11.3833333 C18.9722222,12.4315486 18.1232153,13.2805556 17.075,13.2805556 Z" id="Path"></path>
                    <path d="M18.9560958,1.90101667 L11.3728986,7.83552778 C10.3512444,8.63520694 8.91884167,8.64279583 7.88865,7.85355139 L0.111936111,1.89722222" id="Path"></path>
                    <line x1="12.7398472" y1="6.76359722" x2="18.4315139" y2="11.867125" id="Path"></line>
                    <line x1="6.31775" y1="6.64976389" x2="0.626083333" y2="11.8576389" id="Path"></line>
                </g>
                <polygon id="Path" points="0 0.297222222 22.7666667 0.297222222 22.7666667 23.0638889 0 23.0638889"></polygon>
            </g>
        </g>
    </g>
</svg>