<?xml version="1.0" encoding="UTF-8"?>
<svg width="16px" height="20px" viewBox="0 0 16 20" version="1.1" xmlns="http://www.w3.org/2000/svg" xmlns:xlink="http://www.w3.org/1999/xlink">
    <!-- Generator: sketchtool 59.1 (101010) - https://sketch.com -->
    <title>C874E1D8-E8CB-4A65-A0D5-7AD0D0881C8F</title>
    <desc>Created with sketchtool.</desc>
    <g id="Web-Design" stroke="none" stroke-width="1" fill="none" fill-rule="evenodd">
        <g id="Style-Guide-(Incomplete)" transform="translate(-253.000000, -194.000000)">
            <g id="Lock.1-Copy" transform="translate(249.000000, 192.000000)">
                <g id="Group" transform="translate(0.511111, 0.663889)">
                    <polygon id="Path" points="0 0 22.7666667 0 22.7666667 22.7666667 0 22.7666667"></polygon>
                    <path d="M16.1263889,19.9208333 L6.64027778,19.9208333 C5.5920625,19.9208333 4.74305556,19.0718264 4.74305556,18.0236111 L4.74305556,10.4347222 C4.74305556,9.38650694 5.5920625,8.5375 6.64027778,8.5375 L16.1263889,8.5375 C17.1746042,8.5375 18.0236111,9.38650694 18.0236111,10.4347222 L18.0236111,18.0236111 C18.0236111,19.0718264 17.1746042,19.9208333 16.1263889,19.9208333 Z" id="Path" stroke="#A5A5A5" stroke-width="1.5" stroke-linecap="round" stroke-linejoin="round"></path>
                    <line x1="15.1777778" y1="8.5375" x2="15.1777778" y2="6.64027778" id="Path" stroke="#A5A5A5" stroke-width="1.5" stroke-linecap="round" stroke-linejoin="round"></line>
                    <line x1="7.58888889" y1="8.5375" x2="7.58888889" y2="6.64027778" id="Path" stroke="#A5A5A5" stroke-width="1.5" stroke-linecap="round" stroke-linejoin="round"></line>
                    <path d="M7.58888889,6.64027778 C7.58888889,4.54479583 9.28785139,2.84583333 11.3833333,2.84583333 C13.4788153,2.84583333 15.1777778,4.54479583 15.1777778,6.64027778" id="Path" stroke="#A5A5A5" stroke-width="1.5" stroke-linecap="round" stroke-linejoin="round"></path>
                    <line x1="11.3833333" y1="16.2117639" x2="11.3833333" y2="13.2805556" id="Path" stroke="#A5A5A5" stroke-width="1.5" stroke-linecap="round" stroke-linejoin="round"></line>
                    <path d="M11.9018442,12.54671 C12.1882061,12.833072 12.1882061,13.2973574 11.9018442,13.5837222 C11.6154822,13.8700842 11.1511968,13.8700842 10.864832,13.5837222 C10.57847,13.2973602 10.57847,12.8330748 10.864832,12.54671 C11.151194,12.260348 11.6154793,12.260348 11.9018442,12.54671" id="Path" stroke="#A5A5A5" stroke-width="1.5" stroke-linecap="round" stroke-linejoin="round"></path>
                </g>
            </g>
        </g>
    </g>
</svg>