<svg width="24" height="24" viewBox="0 0 24 24" fill="none" xmlns="http://www.w3.org/2000/svg">
<path d="M20 22.0002H4C3.46957 22.0002 2.96086 21.7895 2.58579 21.4145C2.21071 21.0394 2 20.5307 2 20.0002V9.04924C2.01662 8.71868 2.11378 8.3972 2.28301 8.11276C2.45224 7.82833 2.68842 7.58956 2.971 7.41724L10.971 2.61724C11.2817 2.43093 11.6372 2.33252 11.9995 2.33252C12.3618 2.33252 12.7173 2.43093 13.028 2.61724L21.028 7.41724C21.629 7.78024 21.998 8.43024 22 9.13224V20.0002C22 20.5307 21.7893 21.0394 21.4142 21.4145C21.0391 21.7895 20.5304 22.0002 20 22.0002ZM4 9.86824V20.0002H20V9.86824L12 15.2012L4 9.86824ZM12 4.33224L5.316 8.34224L12 12.7982L18.683 8.34224L12 4.33224V4.33224Z" fill="#9CA3AF"/>
</svg>
