<?xml version="1.0" encoding="UTF-8"?>
<svg width="30px" height="30px" viewBox="0 0 30 30" version="1.1" xmlns="http://www.w3.org/2000/svg" xmlns:xlink="http://www.w3.org/1999/xlink">
    <!-- Generator: Sketch 59.1 (86144) - https://sketch.com -->
    <title>Group 11 Copy 3</title>
    <desc>Created with Sketch.</desc>
    <g id="Web-Design-Copy" stroke="none" stroke-width="1" fill="none" fill-rule="evenodd">
        <g id="Group-11-Copy-3" transform="translate(1.000000, 1.000000)">
            <rect id="Rectangle" stroke="#A5A5A5" fill="currentColor" x="0" y="0" width="28" height="28" rx="4"></rect>
            <g id="Iphone,-Mobile,-Phone" transform="translate(4.000000, 4.000000)">
                <g id="Group" stroke-linecap="round" stroke-linejoin="round" transform="translate(4.844907, 3.016204)" stroke="#A5A5A5" stroke-width="1.5">
                    <path d="M8.69560185,14.2291667 L0.790509259,14.2291667 C0.354148148,14.2291667 0,13.8750185 0,13.4386574 L0,0.790509259 C0,0.354148148 0.354148148,0 0.790509259,0 L8.69560185,0 C9.13196296,0 9.48611111,0.354148148 9.48611111,0.790509259 L9.48611111,13.4386574 C9.48611111,13.8750185 9.13196296,14.2291667 8.69560185,14.2291667 Z" id="Path"></path>
                    <path d="M4.74226505,10.5730613 C4.57862963,10.5738519 4.44661458,10.7066574 4.44661458,10.8702928 C4.44661458,11.0339282 4.57942014,11.1667338 4.74305556,11.1659433 C4.90669097,11.1659433 5.03949653,11.0331377 5.03949653,10.8695023 C5.03949653,10.7058669 4.90669097,10.5730613 4.74226505,10.5730613" id="Path"></path>
                    <line x1="3.9525463" y1="2.37152778" x2="5.53356481" y2="2.37152778" id="Path"></line>
                </g>
                <polygon id="Path" points="0.101851852 0.644675926 19.0740741 0.644675926 19.0740741 19.6168981 0.101851852 19.6168981"></polygon>
            </g>
        </g>
    </g>
</svg>