<svg width="16" height="20" viewBox="0 0 16 20" fill="none" xmlns="http://www.w3.org/2000/svg">
<path fill-rule="evenodd" clip-rule="evenodd" d="M9.49956 2.06278V2C9.49956 1.17 8.82956 0.5 7.99956 0.5C7.16956 0.5 6.49956 1.17 6.49956 2V2.68C3.62956 3.36 1.99956 5.92 1.99956 9V14L0.709563 15.29C0.0795632 15.92 0.519563 17 1.40956 17H14.5796C15.4796 17 15.9196 15.92 15.2896 15.29L13.9996 14V9C13.9996 8.62234 13.9747 8.25224 13.9259 7.8923C13.6287 7.96273 13.3187 8 13 8C12.6126 8 12.2381 7.94494 11.8839 7.84221C11.9603 8.2118 11.9996 8.59992 11.9996 9V15H3.99956V9C3.99956 6.52 5.50956 4.5 7.99956 4.5C8.37203 4.5 8.72256 4.5452 9.04939 4.63038C9.01688 4.42503 9 4.21449 9 4C9 3.2972 9.18125 2.63673 9.49956 2.06278ZM9.99956 18C9.99956 19.1 9.09956 20 7.99956 20C6.88956 20 5.99956 19.1 5.99956 18H9.99956Z" fill="#1F2937"/>
<circle cx="13" cy="4" r="3" fill="#FF3236"/>
</svg>
