<?xml version="1.0" encoding="UTF-8"?>
<svg width="19px" height="19px" viewBox="0 0 19 19" version="1.1" xmlns="http://www.w3.org/2000/svg" xmlns:xlink="http://www.w3.org/1999/xlink">
    <!-- Generator: sketchtool 59.1 (101010) - https://sketch.com -->
    <title>DC03143A-18AB-4F76-BBAA-AE47C6DD83F7</title>
    <desc>Created with sketchtool.</desc>
    <g id="Web-Design" stroke="none" stroke-width="1" fill="none" fill-rule="evenodd">
        <g id="Style-Guide-(Incomplete)" transform="translate(-333.000000, -195.000000)">
            <g id="Phone,-Call.13-Copy" transform="translate(331.000000, 192.000000)">
                <path d="M18.965,16.61 L17.792,15.437 C17.206,14.851 16.256,14.851 15.671,15.437 L14.749,16.359 C14.543,16.565 14.231,16.634 13.965,16.517 C12.629,15.932 11.309,15.045 10.132,13.868 C8.96,12.696 8.076,11.382 7.49,10.051 C7.368,9.776 7.439,9.453 7.652,9.24 L8.478,8.414 C9.149,7.743 9.149,6.794 8.563,6.208 L7.39,5.035 C6.609,4.254 5.343,4.254 4.562,5.035 L3.91,5.686 C3.169,6.427 2.86,7.496 3.06,8.556 C3.554,11.169 5.072,14.03 7.521,16.479 C9.97,18.928 12.831,20.446 15.444,20.94 C16.504,21.14 17.573,20.831 18.314,20.09 L18.965,19.439 C19.746,18.658 19.746,17.392 18.965,16.61 L18.965,16.61 Z" id="Path" stroke="#A5A5A5" stroke-width="1.5" stroke-linecap="round" stroke-linejoin="round"></path>
                <polygon id="Path" points="0 0 24 0 24 24 0 24"></polygon>
            </g>
        </g>
    </g>
</svg>