<?xml version="1.0" encoding="UTF-8"?>
<svg width="18px" height="22px" viewBox="0 0 18 22" version="1.1" xmlns="http://www.w3.org/2000/svg" xmlns:xlink="http://www.w3.org/1999/xlink">
    <!-- Generator: Sketch 59.1 (86144) - https://sketch.com -->
    <title>Trash, Delete, Bin</title>
    <desc>Created with Sketch.</desc>
    <g id="Web-Design-Copy" stroke="none" stroke-width="1" fill="none" fill-rule="evenodd" stroke-linecap="round" stroke-linejoin="round">
        <g id="Edit-Extract-Template" transform="translate(-557.000000, -392.000000)" stroke="#A5A5A5" stroke-width="1.5">
            <g id="Trash,-Delete,-Bin" transform="translate(558.000000, 393.000000)">
                <g id="Group">
                    <line x1="0" y1="3.92222222" x2="15.5555556" y2="3.92222222" id="Path"></line>
                    <line x1="4.44444444" y1="8.3" x2="4.44444444" y2="15.0333333" id="Path"></line>
                    <line x1="7.77777778" y1="7.01111111" x2="7.77777778" y2="16.2" id="Path"></line>
                    <line x1="11.1111111" y1="8.3" x2="11.1111111" y2="15.0333333" id="Path"></line>
                    <path d="M11.9944444,19.4133333 L3.56111111,19.4133333 C2.20777778,19.4133333 1.11111111,18.3166667 1.11111111,16.9633333 L1.11111111,3.92 L14.4444444,3.92 L14.4444444,16.9633333 C14.4444444,18.3166667 13.3477778,19.4133333 11.9944444,19.4133333 Z" id="Path"></path>
                    <path d="M12.2222222,3.92 L11.4022222,1.35888889 C11.2544444,0.898888889 10.8266667,0.586666667 10.3444444,0.586666667 L5.21111111,0.586666667 C4.72777778,0.586666667 4.3,0.898888889 4.15333333,1.35888889 L3.33333333,3.92" id="Path"></path>
                </g>
            </g>
        </g>
    </g>
</svg>