<?xml version="1.0" encoding="UTF-8"?>
<svg width="30px" height="30px" viewBox="0 0 30 30" version="1.1" xmlns="http://www.w3.org/2000/svg" xmlns:xlink="http://www.w3.org/1999/xlink">
    <!-- Generator: sketchtool 59.1 (101010) - https://sketch.com -->
    <title>22108006-1CF8-4E51-9961-AA7BE1DF6B22</title>
    <desc>Created with sketchtool.</desc>
    <defs>
        <linearGradient x1="33.2019533%" y1="14.05981%" x2="58.4948073%" y2="68.1747744%" id="linearGradient-1">
            <stop stop-color="#00C3FF" offset="0%"></stop>
            <stop stop-color="#00B0ED" offset="100%"></stop>
        </linearGradient>
        <linearGradient x1="73.8335045%" y1="62.7852419%" x2="-89.8948936%" y2="-25.0447696%" id="linearGradient-2">
            <stop stop-color="#00B0ED" stop-opacity="0" offset="0%"></stop>
            <stop stop-color="#00A2CE" offset="100%"></stop>
        </linearGradient>
        <linearGradient x1="49.9996672%" y1="26.9860983%" x2="49.9996672%" y2="92.6337225%" id="linearGradient-3">
            <stop stop-color="#00B0ED" stop-opacity="0" offset="0%"></stop>
            <stop stop-color="#00A2CE" offset="100%"></stop>
        </linearGradient>
        <linearGradient x1="94.5561774%" y1="86.4149687%" x2="34.2372875%" y2="30.4408355%" id="linearGradient-4">
            <stop stop-color="#00B0ED" stop-opacity="0" offset="0%"></stop>
            <stop stop-color="#00A2CE" offset="100%"></stop>
        </linearGradient>
    </defs>
    <g id="Web-Design" stroke="none" stroke-width="1" fill="none" fill-rule="evenodd">
        <g id="Style-Guide-(Incomplete)" transform="translate(-329.000000, -266.000000)" fill-rule="nonzero">
            <g id="twitter-(1)" transform="translate(329.000000, 266.000000)">
                <path d="M24.6340942,29.4863892 C18.2178497,30.1712036 11.7821503,30.1712036 5.36590576,29.4863892 C2.80746457,29.2133331 0.786666855,27.1925354 0.51361084,24.6338654 C-0.171203613,18.2176208 -0.171203613,11.7821503 0.51361084,5.36590576 C0.786666855,2.80746457 2.80746457,0.786666855 5.36590576,0.51361084 C11.7821503,-0.171203613 18.2176208,-0.171203613 24.6338654,0.51361084 C27.1925354,0.786666855 29.2133331,2.80746457 29.4863892,5.36590576 C30.1712036,11.7821503 30.1712036,18.2176208 29.4863892,24.6338654 C29.2133331,27.1925354 27.1927643,29.2133331 24.6340942,29.4863892 Z" id="Path" fill="url(#linearGradient-1)"></path>
                <path d="M27.8148823,6.47755639 C27.5734757,4.21431307 25.7859721,2.42658135 23.5225006,2.18494663 C17.8464808,1.57937677 12.1535762,1.57937677 6.47755639,2.18494663 C4.21431307,2.42658135 2.42658135,4.21431307 2.18494663,6.47755639 C1.57937677,12.1535762 1.57937677,17.8464808 2.18494663,23.5222725 C2.42658135,25.785744 4.21431307,27.5734757 6.47755639,27.8148823 C12.1535762,28.4206803 17.8464808,28.4206803 23.5222725,27.8148823 C25.785744,27.5734757 27.5734757,25.785744 27.8148823,23.5222725 C28.4206803,17.8464808 28.4206803,12.1535762 27.8148823,6.47755639 L27.8148823,6.47755639 Z" id="Path" fill="url(#linearGradient-2)"></path>
                <path d="M0.576923077,23.9423077 C0.597546138,24.1520878 0.61885659,24.361868 0.64108362,24.5716482 C0.91445335,27.1598634 2.93757276,29.2041783 5.49918248,29.480412 C11.9227987,30.173196 18.3656629,30.173196 24.7892791,29.480412 C27.3508888,29.2041783 29.3737791,27.1598634 29.6471488,24.5716482 C29.6693758,24.361868 29.6906863,24.1520878 29.7115385,23.9423077 L0.576923077,23.9423077 Z" id="Path" fill="url(#linearGradient-3)"></path>
                <path d="M29.9938915,14.0001318 L23.7837686,7.79425782 C23.0878203,8.19184801 22.4745002,8.41242726 22.0125129,8.53469251 C21.7527592,8.60426513 21.5407106,8.64213083 21.3882366,8.66288857 C20.6879514,7.94549265 19.7101088,7.5 18.6277254,7.5 C16.4981101,7.5 14.771364,9.2254 14.771364,11.3540927 C14.771364,11.4309648 14.7734182,11.5069243 14.7784399,11.5826558 C14.7887113,11.7671942 14.8122216,11.9485391 14.848514,12.1248657 C13.9594624,12.1116355 11.0697591,11.8744044 8.31381311,9.51349887 C8.31358481,9.51349887 8.31358481,9.51327077 8.31358481,9.51327077 L8.31335657,9.51327077 L7.01367491,8.21420245 C7.01367491,8.21420245 5.48893418,10.8736998 7.73062259,12.8917608 C7.82900028,13.0014802 7.93719299,13.1098309 8.05565714,13.2163568 C8.06501557,13.2268497 8.07483053,13.2371145 8.08418895,13.2476074 C7.78996879,13.2277621 6.90502566,13.1397129 6.3928224,12.7781636 C6.3928224,12.7781636 6.28987956,14.4036528 7.6450271,15.6003011 L8.73927969,16.7031976 C8.40602791,16.7307985 8.03739678,16.7241834 7.78106685,16.6119548 C7.78106685,16.6119548 8.00795189,17.5747937 8.88490609,18.3453385 L10.417864,19.8852876 C9.49822622,20.4206543 7.88834654,21.0906041 5.76923077,20.9195239 L15.0685515,30 C18.2636593,29.9990876 21.4587673,29.8284637 24.6490818,29.4881283 C27.20074,29.2159969 29.2159998,27.2020418 29.4883076,24.6522638 C29.866982,21.1052029 30.0352056,17.5522112 29.9938915,14.0001318 L29.9938915,14.0001318 Z" id="Path" fill="url(#linearGradient-4)"></path>
                <path d="M24.2307692,9.02482493 C23.5718019,9.37515037 22.5792607,9.53703443 22.2502315,9.58368288 C22.2475047,9.56751759 22.244778,9.55204506 22.2420512,9.53657259 C23.3607051,8.83338137 23.7031409,7.50944214 23.7031409,7.50944214 C23.0103162,7.91195848 22.3997489,8.13527071 21.9398351,8.25905083 C21.6812473,8.32948546 21.4701504,8.3675894 21.3183608,8.38883524 C20.6212187,7.6623198 19.6477649,7.21153846 18.5702397,7.21153846 C16.4501827,7.21153846 14.7311868,8.95808523 14.7311868,11.1133835 C14.7311868,11.190977 14.7332318,11.2681087 14.7382309,11.3445475 C14.7484562,11.5313724 14.771861,11.7149642 14.8079906,11.8934754 C13.7818193,11.8780029 10.0777411,11.5581606 7.00831666,7.93458989 C7.00831666,7.93458989 5.29909166,10.9653554 8.17264375,13.0356704 C8.17264375,13.0356704 7.00831666,12.9987211 6.39025073,12.5550986 C6.39025073,12.5550986 6.20846664,15.4754781 9.51807334,16.3992104 C9.51807334,16.3992104 8.35442784,16.6952665 7.77203709,16.4363906 C7.77203709,16.4363906 8.35420063,18.949866 11.2638824,19.1350743 C11.2638824,19.1350743 9.17700094,21.0767595 5.76923077,20.7973305 C7.44528014,21.875788 9.43240754,22.5 11.5629172,22.5 C17.5533849,22.5 22.409747,17.5647295 22.409747,11.4766412 C22.409747,11.4006643 22.4090654,11.3246872 22.4074747,11.2487103 C22.4090654,11.2036783 22.409747,11.1588773 22.409747,11.1133835 C22.409747,11.0817457 22.4090654,11.0501079 22.4086109,11.01847 C23.5161305,10.2683995 24.2307692,9.02482493 24.2307692,9.02482493 L24.2307692,9.02482493 Z" id="Path" fill="#FFFFFF"></path>
            </g>
        </g>
    </g>
</svg>