<?xml version="1.0" encoding="UTF-8"?>
<svg width="20px" height="16px" viewBox="0 0 20 16" version="1.1" xmlns="http://www.w3.org/2000/svg" xmlns:xlink="http://www.w3.org/1999/xlink">
    <!-- Generator: sketchtool 59.1 (101010) - https://sketch.com -->
    <title>1BA1E477-39F6-440E-93F4-C1D2D383F587</title>
    <desc>Created with sketchtool.</desc>
    <g id="Web-Design" stroke="none" stroke-width="1" fill="none" fill-rule="evenodd">
        <g id="Style-Guide-(Incomplete)" transform="translate(-433.000000, -198.000000)">
            <g id="Eye,-Show,-Visible-Copy" transform="translate(431.000000, 194.000000)">
                <g id="Group" stroke-linecap="round" stroke-linejoin="round" transform="translate(3.579167, 5.718056)" stroke="#444444" stroke-width="1.5">
                    <path d="M0.111936111,7.08327917 C-0.0369958333,6.80723333 -0.0369958333,6.47237361 0.111936111,6.19632778 C1.90670833,2.8771375 5.22210417,0 8.5375,0 C11.8528958,0 15.1682917,2.8771375 16.9630639,6.19727639 C17.1119958,6.47332222 17.1119958,6.80818194 16.9630639,7.08422778 C15.1682917,10.4034181 11.8528958,13.2805556 8.5375,13.2805556 C5.22210417,13.2805556 1.90670833,10.4034181 0.111936111,7.08327917 Z" id="Path"></path>
                    <path d="M10.6504364,4.52735088 C11.8173703,5.69428483 11.8173703,7.58626124 10.6504364,8.75319519 C9.48350243,9.92012915 7.59152603,9.92012915 6.42459207,8.75319519 C5.25765811,7.58626124 5.25765811,5.69428483 6.42459207,4.52735088 C7.59152603,3.36041692 9.48350243,3.36041692 10.6504364,4.52735088" id="Path"></path>
                </g>
                <polygon id="Path" points="0.733333333 0.975 23.5 0.975 23.5 23.7416667 0.733333333 23.7416667"></polygon>
                <polygon id="Path-Copy" points="0.733333333 0.975 23.5 0.975 23.5 23.7416667 0.733333333 23.7416667"></polygon>
            </g>
        </g>
    </g>
</svg>