<?xml version="1.0" encoding="UTF-8"?>
<svg width="41px" height="38px" viewBox="0 0 41 38" version="1.1" xmlns="http://www.w3.org/2000/svg" xmlns:xlink="http://www.w3.org/1999/xlink">
    <!-- Generator: sketchtool 54.1 (76490) - https://sketchapp.com -->
    <title>FBBDC016-E16F-449A-9057-D193B9C534F5</title>
    <desc>Created with sketchtool.</desc>
    <g id="Page-1" stroke="none" stroke-width="1" fill="none" fill-rule="evenodd">
        <g id="Homepage_CBS" transform="translate(-107.000000, -1202.000000)" fill="#26834E" fill-rule="nonzero">
            <g id="computer" transform="translate(107.000000, 1203.000000)">
                <path d="M36.5999048,0 L4.10001904,0 C2.30838387,0 0.85,1.46781297 0.85,3.27274122 L0.85,26.1817763 C0.85,27.9867046 2.30838387,29.4545176 4.10001904,29.4545176 L15.4786277,29.4545176 C15.4445027,30.7598709 15.1969446,32.8479146 14.2673449,33.8338713 C13.9261717,34.194995 13.5357916,34.363591 13.0374762,34.363591 C12.5883677,34.363591 12.2249524,34.7295471 12.2249524,35.1817955 C12.2249524,35.6340439 12.5883677,36 13.0374762,36 L27.6624476,36 C28.1115561,36 28.4749714,35.6340439 28.4749714,35.1817955 C28.4749714,34.7295471 28.1115561,34.363591 27.6624476,34.363591 C27.1641322,34.363591 26.7737521,34.1957621 26.4341785,33.8346384 C25.506864,32.8535907 25.2577062,30.7625555 25.2222864,29.4545176 L36.599981,29.4545176 C38.3916161,29.4545176 39.85,27.9867813 39.85,26.1817763 L39.85,3.27274122 C39.8499238,1.46781297 38.39154,0 36.5999048,0 Z M15.9113593,34.3635143 C16.8919941,32.8486816 17.0824995,30.6672888 17.1067983,29.4544409 L23.5932017,29.4544409 C23.6175005,30.6673655 23.8079298,32.8486816 24.7885646,34.3635143 L15.9113593,34.3635143 Z M38.2249524,26.1817763 C38.2249524,27.0838186 37.4965222,27.8181086 36.599981,27.8181086 L4.10001904,27.8181086 C3.20340165,27.8181086 2.47504761,27.0838186 2.47504761,26.1817763 L2.47504761,22.9090351 L38.2249524,22.9090351 L38.2249524,26.1817763 Z M38.2249524,21.2727029 L2.47497144,21.2727029 L2.47497144,3.27274122 C2.47497144,2.37069897 3.20340165,1.63640896 4.09994287,1.63640896 L36.5999048,1.63640896 C37.4965222,1.63640896 38.2248762,2.37069897 38.2248762,3.27274122 L38.2249524,21.2727029 L38.2249524,21.2727029 Z" id="Shape" stroke="#26834E"></path>
                <path d="M20.35,26 C21.1776614,26 21.85,25.3268879 21.85,24.5 C21.85,23.6731121 21.1775911,23 20.35,23 C19.5224089,23 18.85,23.6731121 18.85,24.5 C18.85,25.3268879 19.5223386,26 20.35,26 Z" id="Path"></path>
            </g>
        </g>
    </g>
</svg>