<?xml version="1.0" encoding="UTF-8"?>
<svg width="41px" height="37px" viewBox="0 0 41 37" version="1.1" xmlns="http://www.w3.org/2000/svg" xmlns:xlink="http://www.w3.org/1999/xlink">
    <!-- Generator: sketchtool 54.1 (76490) - https://sketchapp.com -->
    <title>E1F3638A-7866-45B5-B45F-D946E94E387C</title>
    <desc>Created with sketchtool.</desc>
    <g id="Page-1" stroke="none" stroke-width="1" fill="none" fill-rule="evenodd" stroke-linecap="round" stroke-linejoin="round">
        <g id="Homepage_CBS" transform="translate(-947.000000, -864.000000)" stroke="#26834E" stroke-width="3">
            <g id="Credit-card,-Done,-Check" transform="translate(949.000000, 866.000000)">
                <g id="Group">
                    <path d="M27.75,33 C22.64215,33 18.5,28.8951667 18.5,23.8333333 C18.5,18.7715 22.64215,14.6666667 27.75,14.6666667 C32.8597,14.6666667 37,18.7715 37,23.8333333 C37,28.8951667 32.8597,33 27.75,33" id="Path"></path>
                    <path d="M0,7.05833333 L35.15,7.05833333" id="Path"></path>
                    <path d="M18.5,23.8333333 L3.7,23.8333333 C1.65575,23.8333333 0,22.1925 0,20.1666667 L0,3.66666667 C0,1.64083333 1.65575,0 3.7,0 L31.45,0 C33.49425,0 35.15,1.64083333 35.15,3.66666667" id="Path"></path>
                    <path d="M35.15,3.66666667 L35.15,18.3333333" id="Path"></path>
                    <path d="M23.643,23.8333333 L26.714,26.895" id="Path"></path>
                    <path d="M31.857,21.7983333 L26.714,26.895" id="Path"></path>
                </g>
            </g>
        </g>
    </g>
</svg>