<?xml version="1.0" encoding="UTF-8"?>
<svg width="40px" height="40px" viewBox="0 0 40 40" version="1.1" xmlns="http://www.w3.org/2000/svg" xmlns:xlink="http://www.w3.org/1999/xlink">
    <!-- Generator: Sketch 50 (54983) - http://www.bohemiancoding.com/sketch -->
    <title>Facebook</title>
    <desc>Created with Sketch.</desc>
    <defs></defs>
    <g id="Page-1" stroke="none" stroke-width="1" fill="none" fill-rule="evenodd">
        <g id="Homepage_Make-payment_Federal-Agency_Add-Employee_Generate-BIN" transform="translate(-1018.000000, -1754.000000)" fill="#FFFFFF">
            <g id="Footer" transform="translate(0.000000, 1645.000000)">
                <path d="M1038.00263,109 C1026.95562,109 1018,117.955617 1018,129.002634 C1018,140.044383 1026.95562,149 1038.00263,149 C1049.04438,149 1058,140.044383 1058,129.002634 C1058,117.955617 1049.04438,109 1038.00263,109 L1038.00263,109 Z M1047.73265,137.45779 C1047.73265,138.047807 1047.44291,138.675227 1046.85816,138.675227 L1041.93784,138.675227 L1041.93784,131.300013 L1044.44014,131.300013 L1044.81944,128.139207 L1041.93784,128.139207 L1041.93784,126.252733 C1041.93784,125.409851 1042.16436,124.978401 1043.376,124.978401 L1045.09864,124.978401 L1045.09864,122.222705 C1044.57184,122.185829 1043.7553,122.106809 1042.68589,122.106809 C1040.46279,122.106809 1038.77703,123.465955 1038.77703,125.962992 L1038.77703,128.139207 L1036.14303,128.139207 L1036.14303,131.300013 L1038.77703,131.300013 L1038.77703,138.675227 L1029.65284,138.675227 C1029.06282,138.675227 1028.76781,138.047807 1028.76781,137.45779 L1028.76781,120.252469 C1028.76781,119.662452 1029.06282,119.18359 1029.65284,119.18359 L1046.85816,119.18359 C1047.44291,119.18359 1047.73265,119.662452 1047.73265,120.252469 L1047.73265,137.45779 L1047.73265,137.45779 Z" id="Facebook"></path>
            </g>
        </g>
    </g>
</svg>