<?xml version="1.0" encoding="UTF-8"?>
<svg width="40px" height="40px" viewBox="0 0 40 40" version="1.1" xmlns="http://www.w3.org/2000/svg" xmlns:xlink="http://www.w3.org/1999/xlink">
    <!-- Generator: Sketch 54.1 (76490) - https://sketchapp.com -->
    <title>Facebook 2</title>
    <desc>Created with Sketch.</desc>
    <g id="Page-1" stroke="none" stroke-width="1" fill="none" fill-rule="evenodd">
        <g id="Homepage_CBS" transform="translate(-1008.000000, -1620.000000)" fill="#6D6D6D">
            <g id="Facebook-2" transform="translate(1008.000000, 1620.000000)">
                <path d="M20.002634,0 C8.95561702,0 0,8.95561702 0,20.002634 C0,31.044383 8.95561702,40 20.002634,40 C31.044383,40 40,31.044383 40,20.002634 C40,8.95561702 31.044383,0 20.002634,0 L20.002634,0 Z M29.7326485,28.4577901 C29.7326485,29.0478072 29.4429079,29.6752272 28.8581588,29.6752272 L23.9378375,29.6752272 L23.9378375,22.3000132 L26.4401422,22.3000132 L26.819439,19.1392072 L23.9378375,19.1392072 L23.9378375,17.2527328 C23.9378375,16.4098512 24.1643619,15.9784012 25.3760042,15.9784012 L27.0986435,15.9784012 L27.0986435,13.2227051 C26.5718425,13.1858291 25.7553009,13.1068089 24.6858949,13.1068089 C22.4627947,13.1068089 20.7770315,14.4659555 20.7770315,16.9629922 L20.7770315,19.1392072 L18.1430265,19.1392072 L18.1430265,22.3000132 L20.7770315,22.3000132 L20.7770315,29.6752272 L11.6528381,29.6752272 C11.062821,29.6752272 10.7678125,29.0478072 10.7678125,28.4577901 L10.7678125,11.2524694 C10.7678125,10.6624523 11.062821,10.1835901 11.6528381,10.1835901 L28.8581588,10.1835901 C29.4429079,10.1835901 29.7326485,10.6624523 29.7326485,11.2524694 L29.7326485,28.4577901 L29.7326485,28.4577901 Z" id="Facebook"></path>
            </g>
        </g>
    </g>
</svg>