<?xml version="1.0" encoding="UTF-8"?>
<svg width="43px" height="40px" viewBox="0 0 43 40" version="1.1" xmlns="http://www.w3.org/2000/svg" xmlns:xlink="http://www.w3.org/1999/xlink">
    <!-- Generator: sketchtool 54.1 (76490) - https://sketchapp.com -->
    <title>852BB666-A4E6-42B7-96B8-2FCBF351D3DC</title>
    <desc>Created with sketchtool.</desc>
    <g id="Page-1" stroke="none" stroke-width="1" fill="none" fill-rule="evenodd" stroke-linecap="round" stroke-linejoin="round">
        <g id="Homepage_CBS" transform="translate(-521.000000, -1201.000000)" stroke="#26834E" stroke-width="3">
            <g id="Group" transform="translate(523.000000, 1203.000000)">
                <path d="M21,28 L3.876,28 C1.736,28 8.8817842e-16,26.21 8.8817842e-16,24 L8.8817842e-16,4 C8.8817842e-16,1.79 1.736,0 3.876,0 L27.142,0 C29.276,0 31.008,1.782 31.018,3.984 L31.072,18.056" id="Path"></path>
                <path d="M39,27 C39,31.97 34.97,36 30,36 C25.03,36 21,31.97 21,27 C21,22.028 25.03,18 30,18 C34.97,18 39,22.028 39,27" id="Path"></path>
                <polyline id="Path" points="27 28 31 28 31 24"></polyline>
                <path d="M6,8 L22,8" id="Path"></path>
                <path d="M6.04,14 L22,14" id="Path"></path>
                <path d="M6.04,19.7 L13.14,19.7" id="Path"></path>
            </g>
        </g>
    </g>
</svg>