<svg xmlns="http://www.w3.org/2000/svg" viewBox="0 0 700.94 356.2"><defs><style>.cls-1{fill:#4c4c4c;opacity:0.4;}.cls-2{fill:none;stroke:#fff;stroke-miterlimit:10;stroke-width:13.21px;}.cls-3{fill:#fff;}</style></defs><title>Growth</title><g id="Layer_2" data-name="Layer 2"><g id="Layer_1-2" data-name="Layer 1"><path class="cls-1" d="M655.07,57.93a7.42,7.42,0,0,0-3.25.79A5.25,5.25,0,0,0,650.2,60l-.07,0h0c-2.65,3.33-1.17,10,3.75,16.7C531.75,193,387.12,257.74,282.33,291,156.43,331,46.47,347.12,25.9,343.89L4.84,355.47a64.28,64.28,0,0,0,6.55.62c33.06,1.7,154.76-16.74,271.15-53.68C388.75,268.69,538.74,204.13,663.28,86.1c6.28,4.54,12.85,6.5,16.68,4.47a5.29,5.29,0,0,0,1.24-.95l.08.18.16-.43a6.26,6.26,0,0,0,1.43-3.76L700.94,38Z"/><path class="cls-2" d="M625.79,26.83C403.57,285.45,51.35,348.39,0,348.52"/><polygon class="cls-3" points="598.62 25.49 621.03 32.21 631.74 53.01 647.8 0 598.62 25.49"/><path class="cls-3" d="M624.31,33.62c8.42,8.3,11.07,17.63,5.95,20.83s-16.1-.93-24.51-9.23S594.67,27.6,599.8,24.4,615.9,25.32,624.31,33.62Z"/></g></g></svg>