<?xml version="1.0" encoding="UTF-8"?>
<svg width="33px" height="33px" viewBox="0 0 33 33" version="1.1" xmlns="http://www.w3.org/2000/svg" xmlns:xlink="http://www.w3.org/1999/xlink">
    <!-- Generator: sketchtool 54.1 (76490) - https://sketchapp.com -->
    <title>0DDB3812-D12A-4AA4-9767-8796BE129D4D</title>
    <desc>Created with sketchtool.</desc>
    <g id="Page-1" stroke="none" stroke-width="1" fill="none" fill-rule="evenodd">
        <g id="Homepage_CBS" transform="translate(-950.000000, -1203.000000)">
            <g id="Infornation,-Info.2" transform="translate(947.000000, 1200.000000)">
                <g id="Group">
                    <polygon id="a" points="0 0 39 0 39 39 0 39"></polygon>
                    <polygon id="a" points="0 0 39 0 39 39 0 39"></polygon>
                    <path d="M12.1875,4.875 L8.125,4.875 C6.329375,4.875 4.875,6.329375 4.875,8.125 L4.875,12.1875" id="Path" stroke="#26834E" stroke-width="3" stroke-linecap="round" stroke-linejoin="round"></path>
                    <path d="M4.875,26.8125 L4.875,30.875 C4.875,32.670625 6.329375,34.125 8.125,34.125 L12.1875,34.125" id="Path" stroke="#26834E" stroke-width="3" stroke-linecap="round" stroke-linejoin="round"></path>
                    <path d="M26.8125,34.125 L30.875,34.125 C32.670625,34.125 34.125,32.670625 34.125,30.875 L34.125,26.8125" id="Path" stroke="#26834E" stroke-width="3" stroke-linecap="round" stroke-linejoin="round"></path>
                    <path d="M34.125,12.1875 L34.125,8.125 C34.125,6.329375 32.670625,4.875 30.875,4.875 L26.8125,4.875" id="Path" stroke="#26834E" stroke-width="3" stroke-linecap="round" stroke-linejoin="round"></path>
                    <path d="M19.5,19.5 L19.5,27.625" id="Path" stroke="#26834E" stroke-width="3" stroke-linecap="round" stroke-linejoin="round"></path>
                    <path d="M19.498375,13 C19.274125,13 19.092125,13.182 19.09375,13.40625 C19.09375,13.6305 19.27575,13.8125 19.5,13.8125 C19.72425,13.8125 19.90625,13.6305 19.90625,13.40625 C19.90625,13.182 19.72425,13 19.498375,13" id="Path" stroke="#26834E" stroke-width="3" stroke-linecap="round" stroke-linejoin="round"></path>
                </g>
            </g>
        </g>
    </g>
</svg>