<?xml version="1.0" encoding="UTF-8"?>
<svg width="28px" height="23px" viewBox="0 0 28 23" version="1.1" xmlns="http://www.w3.org/2000/svg" xmlns:xlink="http://www.w3.org/1999/xlink">
    <!-- Generator: Sketch 50 (54983) - http://www.bohemiancoding.com/sketch -->
    <title>printer (1)</title>
    <desc>Created with Sketch.</desc>
    <defs></defs>
    <g id="Page-1" stroke="none" stroke-width="1" fill="none" fill-rule="evenodd">
        <g id="Success" transform="translate(-1068.000000, -600.000000)" fill="#000000" fill-rule="nonzero">
            <g id="printer-(1)" transform="translate(1068.000000, 600.000000)">
                <path d="M26.0275898,3.50568984 L20.80035,3.50568984 L20.80035,0.587356284 C20.80035,0.263030879 20.5344599,0 20.206609,0 L7.79333634,0 C7.46548542,0 7.19959531,0.263030879 7.19959531,0.587356284 L7.19959531,3.50574394 L1.97235552,3.50574394 C0.884787334,3.50568984 0,4.38101678 0,5.4568899 L0,14.8072535 C0,15.8831267 0.884787334,16.7584536 1.97235552,16.7584536 L7.19959531,16.7584536 L7.19959531,22.4126437 C7.19959531,22.7369691 7.46548542,23 7.79333634,23 L20.2066637,23 C20.5345146,23 20.8004047,22.7369691 20.8004047,22.4126437 L20.8004047,16.7584536 L26.0276445,16.7584536 C27.115158,16.7584536 28,15.8831808 28,14.8072535 L28,5.4568899 C27.9999453,4.38101678 27.1151033,3.50568984 26.0275898,3.50568984 Z M20.8002953,4.68034831 L22.2165347,4.68034831 L22.2165347,6.32415605 L20.8002953,6.32415605 L20.8002953,4.68034831 Z M8.38702268,1.17471257 L19.6128679,1.17471257 L19.6128679,6.32421015 L8.38702268,6.32421015 L8.38702268,1.17471257 Z M5.78335589,4.6804024 L7.19959531,4.6804024 L7.19959531,6.32421015 L5.78335589,6.32421015 L5.78335589,4.6804024 Z M19.6129226,21.8252874 L8.38702268,21.8252874 L8.38702268,14.0902212 L19.6129226,14.0902212 L19.6129226,21.8252874 Z M26.8125726,14.8072535 L26.8125179,14.8072535 C26.8125179,15.2354496 26.4603858,15.5837951 26.0276445,15.5837951 L20.80035,15.5837951 L20.80035,14.0902753 L21.8834338,14.0902753 C22.2112847,14.0902753 22.4771748,13.8272444 22.4771748,13.502919 C22.4771748,13.1785936 22.2112847,12.9155627 21.8834338,12.9155627 L20.2066637,12.9155627 L7.79333634,12.9155627 L6.11656618,12.9155627 C5.78871526,12.9155627 5.52282515,13.1785936 5.52282515,13.502919 C5.52282515,13.8272444 5.78871526,14.0902753 6.11656618,14.0902753 L7.19965,14.0902753 L7.19965,15.5837951 L1.97235552,15.5837951 C1.53961418,15.5837951 1.18748206,15.2354496 1.18748206,14.8072535 L1.18748206,5.4568899 C1.18748206,5.02874791 1.53961418,4.68034831 1.97235552,4.68034831 L4.59592852,4.68034831 L4.59592852,6.91145824 C4.59592852,7.23578364 4.86176394,7.49881452 5.18966955,7.49881452 L22.8103304,7.49881452 C23.1381814,7.49881452 23.4040715,7.23578364 23.4040715,6.91145824 L23.4040715,4.68034831 L26.0276445,4.68034831 C26.4603858,4.68034831 26.8125726,5.02869381 26.8125726,5.4568899 L26.8125726,14.8072535 Z" id="Shape"></path>
                <circle id="Oval" cx="3.5" cy="9.5" r="1"></circle>
                <path d="M13.400116,19 L10.599884,19 C10.268641,19 10,19.2238187 10,19.5 C10,19.7760892 10.2685858,20 10.599884,20 L13.400116,20 C13.731359,20 14,19.7760892 14,19.5 C14,19.2238187 13.731359,19 13.400116,19 Z" id="Shape"></path>
                <path d="M16.4126222,16 L10.5874319,16 C10.2630647,16 10,16.2239108 10,16.5 C10,16.7761352 10.2630106,17 10.5874319,17 L16.4125681,17 C16.7369353,17 17,16.7761352 17,16.5 C17,16.2239108 16.7369894,16 16.4126222,16 Z" id="Shape"></path>
            </g>
        </g>
    </g>
</svg>