<?xml version="1.0" encoding="iso-8859-1"?>
<!-- Generator: Adobe Illustrator 19.0.0, SVG Export Plug-In . SVG Version: 6.00 Build 0)  -->
<svg version="1.1" id="Capa_1" xmlns="http://www.w3.org/2000/svg" xmlns:xlink="http://www.w3.org/1999/xlink" x="0px" y="0px"
	 viewBox="0 0 512 512" style="enable-background:new 0 0 512 512;" xml:space="preserve">
<g>
	<g>
		<path d="M231.616,28.005h-24.968c-4.142,0-7.5,3.358-7.5,7.5c0,4.142,3.358,7.5,7.5,7.5h24.968c4.142,0,7.5-3.358,7.5-7.5
			C239.116,31.363,235.758,28.005,231.616,28.005z"/>
	</g>
</g>
<g>
	<g>
		<path d="M179.318,28.005h-1.012c-4.142,0-7.5,3.358-7.5,7.5c0,4.142,3.358,7.5,7.5,7.5h1.012c4.142,0,7.5-3.358,7.5-7.5
			C186.818,31.363,183.46,28.005,179.318,28.005z"/>
	</g>
</g>
<g>
	<g>
		<path d="M231.616,472.707h-24.968c-4.142,0-7.5,3.358-7.5,7.5c0,4.142,3.358,7.5,7.5,7.5h24.968c4.142,0,7.5-3.358,7.5-7.5
			C239.116,476.065,235.758,472.707,231.616,472.707z"/>
	</g>
</g>
<g>
	<g>
		<path d="M421.491,172.294c-2.767-3.082-7.509-3.336-10.591-0.569c-3.082,2.768-3.336,7.509-0.569,10.591
			c23.42,26.08,36.318,59.766,36.318,94.853c0,78.31-63.709,142.02-142.02,142.02s-142.02-63.71-142.02-142.02
			s63.71-142.02,142.02-142.02c31.032,0,60.507,9.826,85.24,28.415c3.311,2.488,8.012,1.82,10.501-1.489
			c2.488-3.312,1.822-8.013-1.489-10.502c-9.486-7.129-19.602-13.09-30.201-17.839V38.04C368.68,17.064,351.616,0,330.64,0H106.27
			C85.294,0,68.23,17.064,68.23,38.04v42.6h-2.089c-8.707,0-15.79,6.732-15.79,15.007v16.027c0,8.275,7.083,15.007,15.79,15.007
			h2.089v2.958h-2.089c-8.707,0-15.79,6.732-15.79,15.007v16.027c0,8.275,7.083,15.007,15.79,15.007h2.089v21.688
			c0,4.142,3.358,7.5,7.5,7.5c4.142,0,7.5-3.358,7.5-7.5V106.1h270.45v21.833c-15.653-5.138-32.143-7.782-49.051-7.782
			c-86.581,0-157.02,70.438-157.02,157.02s70.439,157.02,157.02,157.02c17.123,0,33.611-2.765,49.051-7.855v24.779H166.333
			c-4.142,0-7.5,3.358-7.5,7.5c0,4.142,3.358,7.5,7.5,7.5H353.68v7.847c0,12.704-10.336,23.04-23.04,23.04H106.27
			c-12.704,0-23.04-10.336-23.04-23.04v-7.847h51.037c4.142,0,7.5-3.358,7.5-7.5c0-4.142-3.358-7.5-7.5-7.5H83.23V225.67
			c0-4.142-3.358-7.5-7.5-7.5c-4.142,0-7.5,3.358-7.5,7.5v164.956h-2.089c-8.707,0-15.79,6.732-15.79,15.007v16.027
			c0,8.275,7.083,15.007,15.79,15.007h2.089v37.293c0,20.976,17.064,38.04,38.04,38.04h224.37c20.976,0,38.04-17.064,38.04-38.04
			v-53.44c54.742-24.556,92.968-79.571,92.968-143.351C461.648,238.377,447.387,201.131,421.491,172.294z M68.23,160.682h-2.089
			c-0.41,0-0.669-0.135-0.79-0.227v-15.588c0.121-0.092,0.38-0.227,0.79-0.227h2.089V160.682z M68.23,111.682h-2.089
			c-0.41,0-0.669-0.135-0.79-0.227V95.867c0.121-0.092,0.38-0.227,0.79-0.227h2.089V111.682z M83.23,38.04
			C83.23,25.336,93.566,15,106.27,15h224.37c12.704,0,23.04,10.336,23.04,23.04v16.282H83.23V38.04z M83.23,91.1V69.322h270.45V91.1
			H83.23z M68.23,421.667h-2.089c-0.409,0-0.669-0.135-0.79-0.226v-15.589c0.121-0.091,0.38-0.226,0.79-0.226h2.089V421.667z"/>
	</g>
</g>
<g>
	<g>
		<path d="M264.645,189.059h-40.642c-4.142,0-7.5,3.358-7.5,7.5v40.643c0,4.142,3.358,7.5,7.5,7.5h40.642c4.142,0,7.5-3.358,7.5-7.5
			v-40.643C272.145,192.417,268.786,189.059,264.645,189.059z M257.145,229.702h-25.642v-25.643h25.642V229.702z"/>
	</g>
</g>
<g>
	<g>
		<path d="M324.95,189.059h-40.642c-4.142,0-7.5,3.358-7.5,7.5v40.643c0,4.142,3.358,7.5,7.5,7.5h40.642c4.142,0,7.5-3.358,7.5-7.5
			v-40.643C332.45,192.417,329.092,189.059,324.95,189.059z M317.45,229.702h-25.642v-25.643h25.642V229.702z"/>
	</g>
</g>
<g>
	<g>
		<path d="M385.255,189.059h-40.642c-4.142,0-7.5,3.358-7.5,7.5v40.643c0,4.142,3.358,7.5,7.5,7.5h40.642c4.142,0,7.5-3.358,7.5-7.5
			v-40.643C392.755,192.417,389.397,189.059,385.255,189.059z M377.755,229.702h-25.642v-25.643h25.642V229.702z"/>
	</g>
</g>
<g>
	<g>
		<path d="M264.645,249.349h-40.642c-4.142,0-7.5,3.358-7.5,7.5v40.642c0,4.142,3.358,7.5,7.5,7.5h40.642c4.142,0,7.5-3.358,7.5-7.5
			v-40.642C272.145,252.707,268.786,249.349,264.645,249.349z M257.145,289.991h-25.642v-25.642h25.642V289.991z"/>
	</g>
</g>
<g>
	<g>
		<path d="M324.95,249.349h-40.642c-4.142,0-7.5,3.358-7.5,7.5v40.642c0,4.142,3.358,7.5,7.5,7.5h40.642c4.142,0,7.5-3.358,7.5-7.5
			v-40.642C332.45,252.707,329.092,249.349,324.95,249.349z M317.45,289.991h-25.642v-25.642h25.642V289.991z"/>
	</g>
</g>
<g>
	<g>
		<path d="M385.255,249.349h-40.642c-4.142,0-7.5,3.358-7.5,7.5v40.642c0,4.142,3.358,7.5,7.5,7.5h40.642c4.142,0,7.5-3.358,7.5-7.5
			v-40.642C392.755,252.707,389.397,249.349,385.255,249.349z M377.755,289.991h-25.642v-25.642h25.642V289.991z"/>
	</g>
</g>
<g>
	<g>
		<path d="M264.645,309.638h-40.642c-4.142,0-7.5,3.358-7.5,7.5v40.643c0,4.142,3.358,7.5,7.5,7.5h40.642c4.142,0,7.5-3.358,7.5-7.5
			v-40.643C272.145,312.996,268.786,309.638,264.645,309.638z M257.145,350.28h-25.642v-25.643h25.642V350.28z"/>
	</g>
</g>
<g>
	<g>
		<path d="M324.95,309.638h-40.642c-4.142,0-7.5,3.358-7.5,7.5v40.643c0,4.142,3.358,7.5,7.5,7.5h40.642c4.142,0,7.5-3.358,7.5-7.5
			v-40.643C332.45,312.996,329.092,309.638,324.95,309.638z M317.45,350.28h-25.642v-25.643h25.642V350.28z"/>
	</g>
</g>
<g>
	<g>
		<path d="M385.255,309.638h-40.642c-4.142,0-7.5,3.358-7.5,7.5v40.643c0,4.142,3.358,7.5,7.5,7.5h40.642c4.142,0,7.5-3.358,7.5-7.5
			v-40.643C392.755,312.996,389.397,309.638,385.255,309.638z M377.755,350.28h-25.642v-25.643h25.642V350.28z"/>
	</g>
</g>
<g>
</g>
<g>
</g>
<g>
</g>
<g>
</g>
<g>
</g>
<g>
</g>
<g>
</g>
<g>
</g>
<g>
</g>
<g>
</g>
<g>
</g>
<g>
</g>
<g>
</g>
<g>
</g>
<g>
</g>
</svg>
