<?xml version="1.0" encoding="UTF-8"?>
<svg width="40px" height="40px" viewBox="0 0 40 40" version="1.1" xmlns="http://www.w3.org/2000/svg" xmlns:xlink="http://www.w3.org/1999/xlink">
    <!-- Generator: Sketch 50 (54983) - http://www.bohemiancoding.com/sketch -->
    <title>Twitter</title>
    <desc>Created with Sketch.</desc>
    <defs></defs>
    <g id="Page-1" stroke="none" stroke-width="1" fill="none" fill-rule="evenodd">
        <g id="Homepage_Make-payment_Federal-Agency_Add-Employee_Generate-BIN" transform="translate(-1088.000000, -1750.000000)" fill="#FFFFFF">
            <g id="Footer" transform="translate(0.000000, 1645.000000)">
                <path d="M1108.00263,105 C1096.95562,105 1088,113.955617 1088,125.002634 C1088,136.044383 1096.95562,145 1108.00263,145 C1119.04438,145 1128,136.044383 1128,125.002634 C1128,113.955617 1119.04438,105 1108.00263,105 L1108.00263,105 Z M1115.60437,120.761886 C1115.60964,120.940998 1115.61491,121.120111 1115.61491,121.299223 C1115.61491,126.783221 1111.54274,133.110101 1104.09904,133.110101 C1101.81272,133.110101 1099.68445,132.419992 1097.89332,131.245226 C1098.2094,131.282102 1098.53075,131.303174 1098.85737,131.303174 C1100.75385,131.303174 1102.50283,130.639405 1103.88832,129.527855 C1102.113,129.490979 1100.62215,128.29514 1100.10589,126.646253 C1100.35348,126.693665 1100.60635,126.720005 1100.86448,126.720005 C1101.23851,126.720005 1101.63888,126.667325 1101.97603,126.572501 C1100.12169,126.193204 1098.76781,124.512709 1098.76781,122.500329 L1098.76781,122.452917 C1099.29461,122.758462 1099.90043,122.94811 1100.5642,122.969182 C1099.47373,122.226393 1098.74147,120.951534 1098.74147,119.513368 C1098.74147,118.754774 1098.93112,118.038325 1099.27881,117.427236 C1101.27539,119.940076 1104.25181,121.588964 1107.61807,121.762808 C1107.54432,121.457263 1107.51008,121.141183 1107.51008,120.819834 C1107.51008,118.52825 1109.32069,116.668642 1111.55485,116.668642 C1112.71908,116.668642 1113.77163,117.169103 1114.50915,117.975109 C1115.43105,117.790728 1116.29501,117.448308 1117.07994,116.968919 C1116.77967,117.938233 1116.13644,118.754774 1115.29883,119.265771 C1116.12064,119.165679 1116.9003,118.944422 1117.62202,118.612538 C1117.08468,119.444883 1116.39457,120.177137 1115.60437,120.761886 L1115.60437,120.761886 Z" id="Twitter"></path>
            </g>
        </g>
    </g>
</svg>