<?xml version="1.0" encoding="UTF-8"?>
<svg width="40px" height="40px" viewBox="0 0 40 40" version="1.1" xmlns="http://www.w3.org/2000/svg" xmlns:xlink="http://www.w3.org/1999/xlink">
    <!-- Generator: Sketch 54.1 (76490) - https://sketchapp.com -->
    <title>Twitter 2</title>
    <desc>Created with Sketch.</desc>
    <g id="Page-1" stroke="none" stroke-width="1" fill="none" fill-rule="evenodd">
        <g id="Homepage_CBS" transform="translate(-1078.000000, -1616.000000)" fill="#6D6D6D">
            <g id="Twitter-2" transform="translate(1078.000000, 1616.000000)">
                <path d="M20.002634,0 C8.95561702,0 0,8.95561702 0,20.002634 C0,31.044383 8.95561702,40 20.002634,40 C31.044383,40 40,31.044383 40,20.002634 C40,8.95561702 31.044383,0 20.002634,0 L20.002634,0 Z M27.6043724,15.7618859 C27.6096405,15.9409983 27.6149085,16.1201106 27.6149085,16.299223 C27.6149085,21.7832214 23.5427367,28.1101014 16.0990386,28.1101014 C13.8127222,28.1101014 11.6844462,27.4199921 9.8933228,26.2452259 C10.2094034,26.2821019 10.530752,26.303174 10.8573686,26.303174 C12.7538522,26.303174 14.5028316,25.6394047 15.8883182,24.5278546 C14.1129988,24.4909785 12.622152,23.2951403 12.105887,21.6462531 C12.3534835,21.6936652 12.606348,21.7200053 12.8644804,21.7200053 C13.2385092,21.7200053 13.6388779,21.6673252 13.9760306,21.572501 C12.121691,21.1932043 10.7678125,19.5127091 10.7678125,17.5003293 L10.7678125,17.4529172 C11.2946135,17.7584617 11.9004346,17.9481101 12.5642039,17.9691821 C11.4737258,17.2263927 10.7414724,15.9515343 10.7414724,14.5133676 C10.7414724,13.7547741 10.9311208,13.0383248 11.2788094,12.4272356 C13.2753852,14.9400764 16.2518109,16.5889635 19.6180693,16.7628078 C19.5443171,16.4572633 19.5100751,16.1411827 19.5100751,15.8198341 C19.5100751,13.5282497 21.3206901,11.6686422 23.5548532,11.6686422 C24.7190834,11.6686422 25.7716318,12.1691031 26.5091532,12.9751087 C27.4310549,12.7907283 28.2950086,12.4483077 29.0799421,11.9689187 C28.7796655,12.9382326 28.1364415,13.7547741 27.2988279,14.2657711 C28.1206374,14.1656789 28.9003029,13.9444225 29.6220203,13.6125379 C29.0846833,14.4448834 28.3945739,15.1771368 27.6043724,15.7618859 L27.6043724,15.7618859 Z" id="Twitter"></path>
            </g>
        </g>
    </g>
</svg>