<?xml version="1.0" encoding="UTF-8"?>
<svg width="38px" height="34px" viewBox="0 0 38 34" version="1.1" xmlns="http://www.w3.org/2000/svg" xmlns:xlink="http://www.w3.org/1999/xlink">
    <!-- Generator: sketchtool 54.1 (76490) - https://sketchapp.com -->
    <title>676E5F84-B05B-4DD8-9799-675E1873EB09</title>
    <desc>Created with sketchtool.</desc>
    <g id="Page-1" stroke="none" stroke-width="1" fill="none" fill-rule="evenodd">
        <g id="Homepage_CBS" transform="translate(-110.000000, -861.000000)">
            <g id="User,Profile,-Lock" transform="translate(108.000000, 856.000000)">
                <polygon id="Path" points="0 0 43 0 43 43 0 43"></polygon>
                <path d="M20.5489833,8.9991475 C22.9922971,11.4424612 22.9922971,15.4038542 20.5489833,17.8471679 C18.1056696,20.2904817 14.1442767,20.2904817 11.7009629,17.8471679 C9.25764917,15.4038542 9.25764917,11.4424613 11.7009629,8.9991475 C14.1442767,6.55583375 18.1056696,6.55583375 20.5489833,8.9991475" id="Path" stroke="#26834E" stroke-width="2.7" stroke-linecap="round" stroke-linejoin="round"></path>
                <path d="M3.58333333,34.013 C3.58333333,28.5914167 9.77891667,25.069 16.125,25.069" id="Path" stroke="#26834E" stroke-width="2.7" stroke-linecap="round" stroke-linejoin="round"></path>
                <path d="M16.125,25.069 C22.4710833,25.069 28.6666667,28.5932083 28.6666667,34.013" id="Path" stroke="#26834E" stroke-width="2.7" stroke-linecap="round" stroke-linejoin="round"></path>
                <path d="M28.6666667,34.0416667 L28.6666667,35.8333333 C28.6666667,36.8223333 27.864,37.625 26.875,37.625 L5.375,37.625 C4.386,37.625 3.58333333,36.8223333 3.58333333,35.8333333 L3.58333333,34.0416667" id="Path" stroke="#26834E" stroke-width="2.7" stroke-linecap="round" stroke-linejoin="round"></path>
                <path d="M36.0680417,17.9166667 L32.0170833,17.9166667 C30.6607917,17.9166667 29.5625,16.818375 29.5625,15.463875 L29.5625,14.9944583 C29.5625,13.6399583 30.6607917,12.5416667 32.0152917,12.5416667 L36.06625,12.5416667 C37.4225417,12.5416667 38.5208333,13.6399583 38.5208333,14.9944583 L38.5208333,15.4620833 C38.5208333,16.818375 37.4225417,17.9166667 36.0680417,17.9166667 Z" id="Path" stroke="#26834E" stroke-width="2.7" stroke-linecap="round" stroke-linejoin="round"></path>
                <path d="M31.653375,9.55495833 C31.653375,8.23629167 32.723,7.16666667 34.0416667,7.16666667 C35.3603333,7.16666667 36.4299583,8.30258333 36.4299583,9.55495833" id="Path" stroke="#26834E" stroke-width="2.7" stroke-linecap="round" stroke-linejoin="round"></path>
                <path d="M31.65875,12.5416667 L31.65875,9.54958333" id="Path" stroke="#26834E" stroke-width="2.7" stroke-linecap="round" stroke-linejoin="round"></path>
                <path d="M36.4245833,9.54958333 L36.4245833,12.5416667" id="Path" stroke="#26834E" stroke-width="2.7" stroke-linecap="round" stroke-linejoin="round"></path>
            </g>
        </g>
    </g>
</svg>