<svg xmlns="http://www.w3.org/2000/svg" viewBox="0 0 102.57 97.64"><defs><style>.cls-1{fill:#028948;}.cls-2{fill:#a3ce49;}.cls-3{font-size:7.67px;fill:#048948;font-family:MavenProBold, Maven Pro;font-weight:700;}</style></defs><title>CBS Logo</title><g id="Layer_2" data-name="Layer 2"><g id="Layer_1-2" data-name="Layer 1"><path class="cls-1" d="M36.09,55.94a25,25,0,0,1-2.9.83,12.08,12.08,0,0,1-2.53.25Q24,57,23.31,50H15.47a19,19,0,0,0,.85,4.36,13.61,13.61,0,0,0,2.74,4.89,12.51,12.51,0,0,0,4.52,3.2,15.81,15.81,0,0,0,6.25,1.15c.67,0,1.32,0,1.95-.06s1.26-.11,1.9-.21a16.94,16.94,0,0,0,2-.44c.7-.2,1.45-.45,2.26-.75A22.54,22.54,0,0,0,36.09,55.94Z"/><path class="cls-2" d="M15.44,46.84q0,.55,0,1.11h7.82c0-.38,0-.75,0-1.11Z"/><path class="cls-1" d="M33.5,32.86a24.05,24.05,0,0,0-3.8-.29,15,15,0,0,0-6.06,1.17A12.56,12.56,0,0,0,19.14,37a14.5,14.5,0,0,0-2.78,5,17.68,17.68,0,0,0-.7,2.84h7.88a8,8,0,0,1,1.54-3.43,6.4,6.4,0,0,1,5.25-2.28,13.16,13.16,0,0,1,1.34.06,12.58,12.58,0,0,1,1.26.19c.42.09.86.2,1.32.34s1,.31,1.53.5a24.84,24.84,0,0,0,1.13-2.82A12.19,12.19,0,0,0,37.52,34,19.77,19.77,0,0,0,33.5,32.86Z"/><path class="cls-1" d="M60,36.81a6.94,6.94,0,0,0-2.44-2.51A10.88,10.88,0,0,0,54,33a23.67,23.67,0,0,0-4.45-.4q-2.51,0-4.39.17c-1.26.11-2.41.25-3.47.42V44.8H59.78c.09-.15.18-.3.27-.46a7.35,7.35,0,0,0,.88-3.57A7.85,7.85,0,0,0,60,36.81Zm-7.17,7a4.7,4.7,0,0,1-2.8.73H48.89V38.38a4.09,4.09,0,0,1,.61,0h.6a7,7,0,0,1,1.3.13,3.6,3.6,0,0,1,1.21.46,2.66,2.66,0,0,1,.9.92,2.77,2.77,0,0,1,.36,1.46A2.93,2.93,0,0,1,52.86,43.84Z"/><path class="cls-1" d="M62.4,51.46A7.91,7.91,0,0,0,61.74,50H41.66V63c1.39.17,2.69.31,3.89.42s2.55.17,4.05.17a30.89,30.89,0,0,0,5.27-.42A12.16,12.16,0,0,0,59,61.75a7.5,7.5,0,0,0,2.76-2.84,10.58,10.58,0,0,0,.59-7.44Zm-7.47,4.33a3,3,0,0,1-1.06,1.09,4.76,4.76,0,0,1-1.49.56,7.72,7.72,0,0,1-1.61.17l-1.15,0a7.11,7.11,0,0,1-.73-.06v-7H50.6a6.67,6.67,0,0,1,3.41.77,3,3,0,0,1,1.32,2.78A3.45,3.45,0,0,1,54.93,55.79Z"/><path class="cls-2" d="M59.7,47.8a9.12,9.12,0,0,0-1.83-1H41.66v1.11H59.9Z"/><path class="cls-1" d="M80.31,33a19.81,19.81,0,0,0-4.12-.42,14.3,14.3,0,0,0-4.31.6A9,9,0,0,0,68.6,35a8.21,8.21,0,0,0-2.11,2.9,9.7,9.7,0,0,0-.75,3.93,9.38,9.38,0,0,0,.43,3H78l-.06,0-2-.79A7.86,7.86,0,0,1,74,43a2.08,2.08,0,0,1-.79-1.8A2.26,2.26,0,0,1,73.51,40a2.11,2.11,0,0,1,.78-.75,3.7,3.7,0,0,1,1.09-.4,6.5,6.5,0,0,1,1.28-.12,11.28,11.28,0,0,1,3.64.5q1.46.5,2.55,1a18.87,18.87,0,0,0,1.11-3,21,21,0,0,0,.6-3A33.65,33.65,0,0,0,80.31,33Z"/><path class="cls-1" d="M85,50.44c-.06-.15-.12-.31-.19-.45H71.45c.32.14.64.26,1,.39l2.34.88,1.06.44a4.22,4.22,0,0,1,.94.57,2.38,2.38,0,0,1,.92,2,2.33,2.33,0,0,1-1.19,2.24,7,7,0,0,1-3.32.65,17.23,17.23,0,0,1-6.69-1.67c-.39,1.15-.72,2.27-1,3.36a24,24,0,0,0-.58,3.12,28.61,28.61,0,0,0,4.28,1.29,22.22,22.22,0,0,0,4.58.42,16.94,16.94,0,0,0,5-.69,10.47,10.47,0,0,0,3.7-2,8.26,8.26,0,0,0,2.28-3.05A11,11,0,0,0,85,50.44Z"/><path class="cls-2" d="M68.2,47.95H83.44a9,9,0,0,0-1.34-1.11H67.22a5.43,5.43,0,0,0,.36.46A8.1,8.1,0,0,0,68.2,47.95Z"/><path class="cls-2" d="M8.68,44.8h6.13a18.56,18.56,0,0,0-.22,2H8.68Z"/><path class="cls-2" d="M93.45,44.8v2H83a10.24,10.24,0,0,0-1-.62q-1.38-.72-3.1-1.42Z"/><path class="cls-2" d="M14.55,48.16c0,.62,0,1.23.07,1.83H8.68v-2h5.87C14.55,48,14.55,48.09,14.55,48.16Z"/><path class="cls-2" d="M93.45,47.95v2H85.68a6.79,6.79,0,0,0-1.36-2l0,0Z"/><text class="cls-3" transform="matrix(0.24, -0.97, 0.97, 0.24, 6.2, 43.32)">C</text><text class="cls-3" transform="translate(7.77 37.41) rotate(-68.52)">E</text><text class="cls-3" transform="matrix(0.5, -0.87, 0.87, 0.5, 9.93, 32.03)">N</text><text class="cls-3" transform="matrix(0.62, -0.79, 0.79, 0.62, 13.76, 25.65)">T</text><text class="cls-3" transform="matrix(0.72, -0.7, 0.7, 0.72, 17.42, 21.09)">R</text><text class="cls-3" transform="translate(22.21 16.56) rotate(-35.8)">A</text><text class="cls-3" transform="translate(27.79 12.7) rotate(-28.03)">L</text><text class="cls-3" transform="matrix(0.93, -0.37, 0.37, 0.93, 32.81, 10.16)"> </text><text class="cls-3" transform="translate(36.53 8.68) rotate(-15.41)">B</text><text class="cls-3" transform="matrix(0.99, -0.16, 0.16, 0.99, 42.58, 7.16)">I</text><text class="cls-3" transform="translate(46.18 6.6) rotate(-3.45)">L</text><text class="cls-3" transform="matrix(1, 0.06, -0.06, 1, 51.82, 6.34)">L</text><text class="cls-3" transform="translate(57.58 6.83) rotate(9.54)">I</text><text class="cls-3" transform="matrix(0.96, 0.28, -0.28, 0.96, 61.15, 7.4)">N</text><text class="cls-3" transform="translate(68.07 9.58) rotate(25.18)">G</text><text class="cls-3" transform="matrix(0.85, 0.53, -0.53, 0.85, 74.04, 12.56)"> </text><text class="cls-3" transform="translate(77.4 14.68) rotate(38.03)">S</text><text class="cls-3" transform="translate(81.84 18.23) rotate(45.53)">Y</text><text class="cls-3" transform="translate(86.23 22.85) rotate(53.08)">S</text><text class="cls-3" transform="translate(89.63 27.52) rotate(60.27)">T</text><text class="cls-3" transform="translate(92.44 32.62) rotate(67.69)">E</text><text class="cls-3" transform="translate(94.63 38.02) rotate(76.22)">M</text></g></g></svg>